<svg preserveAspectRatio="none" width="100%" height="100%" overflow="visible" style="display: block;" viewBox="0 0 18.936 32.6825" fill="none" xmlns="http://www.w3.org/2000/svg">
<g id="highlight">
<path id="Vector" d="M13.5017 3.23138C14.2683 4.73672 14.5873 6.28427 14.0876 7.96464C13.8412 8.89165 13.4354 9.71696 12.7804 10.4392C12.7239 10.5015 12.7133 10.5948 12.7239 10.664C11.0271 11.6754 9.34789 12.9898 8.18043 14.5319C1.93236 18.3437 -1.11615 26.1886 2.76031 32.6825C-1.86011 27.8669 -0.263501 19.7736 4.47126 15.5675C6.50407 13.6588 9.11002 12.4814 11.1061 10.5236C13.2138 8.68619 14.2916 5.43267 12.7472 2.98579C12.683 2.93183 12.767 2.86957 12.8086 2.92906L12.8404 2.94982C13.0931 2.97057 13.2963 3.14006 13.5017 3.23138Z" fill="var(--fill-0, #F8F2FA)"/>
<path id="Vector_2" d="M6.62759 18.4613C9.37753 11.0618 16.1204 12.0435 18.936 5.51845C18.329 8.88265 16.0985 11.0874 12.9455 12.525C10.1801 13.7695 8.1289 16.0047 6.62759 18.4606V18.4613Z" fill="var(--fill-0, #F8F2FA)"/>
<path id="Vector_3" d="M18.5711 0.563813C17.7883 0.73192 16.6293 4.33894 16.5502 5.20369C16.3653 6.27874 16.143 7.29222 15.7491 8.30777C15.7202 8.38179 15.7816 8.4572 15.831 8.4828L15.1908 9.04938C16.2263 5.97296 15.8063 2.15356 18.7172 0L18.5711 0.563813Z" fill="var(--fill-0, #F8F2FA)"/>
</g>
</svg>
