<svg preserveAspectRatio="none" width="100%" height="100%" overflow="visible" style="display: block;" viewBox="0 0 29.6925 35.3183" fill="none" xmlns="http://www.w3.org/2000/svg">
<g id="facee">
<path id="Vector" d="M17.0883 0.000691811C16.7403 1.34693 16.6387 2.68901 16.8639 4.0643C16.3013 5.52122 15.4861 6.91311 14.3483 7.91898C14.2989 7.89408 14.2382 7.81798 14.2664 7.74396C14.6609 6.7284 14.8826 5.71492 15.0675 4.63987C15.1444 3.78205 16.307 0.164647 17.0883 0V0.000691811Z" fill="var(--fill-0, #F5D1FF)"/>
<g id="Group">
<path id="Vector_2" d="M11.2412 10.1009C11.2306 10.0317 11.2412 9.93832 11.2976 9.87605C11.9526 9.15382 12.3585 8.32851 12.6048 7.4015C13.1046 5.72182 12.7855 4.17289 12.019 2.66824C12.9782 3.09231 13.7617 3.98887 13.6297 5.04179C13.4977 6.0947 13.0001 8.71107 12.506 9.25413C12.1538 9.64153 11.6498 9.83385 11.2412 10.1002V10.1009Z" fill="var(--fill-0, #F5D1FF)"/>
<g id="Group_2">
<path id="Vector_3" d="M25.6141 13.0701C25.6741 13.2036 27.5185 15.4499 27.6674 15.6436C28.8419 17.4526 29.7355 19.6574 29.6635 21.7853C29.4532 21.2354 29.1998 20.6702 28.8137 20.1721C29.2033 21.2603 29.5125 22.2903 29.6925 23.3619C29.6092 23.3965 29.5605 23.4512 29.5534 23.5494C29.3085 26.1478 28.2878 28.7393 26.3016 30.5372C26.5818 29.054 26.5113 27.5272 26.128 26.0724C26.1132 26.0004 26.0334 25.9783 25.9861 25.9914C25.9642 25.7784 26.0694 25.5203 25.8711 25.2844L25.7122 27.3093C25.5986 27.2823 25.5725 27.3633 25.581 27.4504C24.9316 30.4494 22.7336 33.0574 19.815 34.1705C19.9244 33.7292 19.9879 33.2754 19.9928 32.7856C19.8729 32.8119 19.8594 32.9087 19.8665 32.9883C17.617 35.3722 14.3765 35.6704 11.1762 35.0187C10.7083 34.3034 10.433 33.5147 10.1302 32.6839C10.0984 33.467 10.2671 34.1844 10.5424 34.8457C9.3107 34.6188 8.14748 34.1602 6.98355 33.6911C5.63541 31.8572 5.02697 29.9478 4.89922 27.6953C4.55124 29.4594 4.89922 31.2048 5.62058 32.762C4.0268 31.9713 2.81347 30.4155 2.06034 28.8403C2.00952 28.724 1.99187 28.621 1.85071 28.6362C1.26204 25.6414 1.58955 22.6079 2.69489 19.6892C1.25074 22.1506 0.710072 25.0146 1.01499 27.8046C0.39174 26.3436 -0.0818771 24.5297 0.0543495 22.9282C0.0649371 22.8064 0.158108 22.6646 0 22.6023C0.978996 19.0859 3.55036 15.8781 6.69557 13.968C5.80904 15.3032 5.03686 16.7899 4.91263 18.363C5.0538 18.1755 5.08838 18.031 5.14273 17.8974C6.64546 15.4402 8.6945 13.2071 11.4607 11.9618C14.6158 10.5222 16.8434 8.31815 17.4504 4.95464C17.9974 3.82563 18.6207 2.77825 19.9547 2.34104C17.2951 7.06877 22.0059 10.6723 25.6113 13.0694L25.6141 13.0701ZM24.5716 15.1323L25.6833 16.4855C25.3064 15.0611 23.503 13.16 22.2861 12.2621C20.6726 11.075 19.4613 9.56269 18.7562 7.65956C18.7372 11.3621 22.5148 12.6716 24.5716 15.1323ZM10.5389 21.8151L11.4755 22.4501C12.715 22.8396 11.232 19.5425 9.07072 19.8843C7.08308 20.0302 6.21207 22.199 6.72381 22.4972C6.8198 22.5532 6.98144 22.5076 7.08872 22.4176C8.11713 21.5557 9.28105 21.1406 10.5382 21.8151H10.5389ZM24.4474 22.5034C24.9923 22.2288 24.1086 19.986 22.1012 19.8781C19.8863 19.7584 18.8614 22.2239 19.4289 22.4979C19.5157 22.5401 19.6449 22.5193 19.7493 22.4342C22.5466 20.1624 24.0182 22.7199 24.4481 22.5034H24.4474ZM16.837 28.0364C13.4674 28.9198 12.3013 26.1762 11.5454 26.767C11.3336 26.9357 11.2899 27.2803 11.5016 27.4843C13.7264 29.6545 17.5309 29.7271 19.6872 27.4387C19.8933 27.2263 19.8361 26.9095 19.6682 26.7656C19.0244 26.2121 18.7315 27.5376 16.837 28.0371V28.0364Z" fill="var(--fill-0, #F5D1FF)"/>
<path id="Vector_4" d="M26.1687 34.8555L26.1332 34.8902L26.1687 34.9249L26.2041 34.8902L26.1687 34.8555Z" fill="var(--fill-0, #EDA9FF)"/>
</g>
</g>
</g>
</svg>
