<svg preserveAspectRatio="none" width="100%" height="100%" overflow="visible" style="display: block;" viewBox="0 0 18.0241 9.27395" fill="none" xmlns="http://www.w3.org/2000/svg">
<g id="face">
<path id="Vector" d="M10.2564 8.17753C12.1508 7.67805 12.4438 6.35257 13.0875 6.90601C13.2548 7.0499 13.3126 7.36674 13.1065 7.57912C10.9509 9.86758 7.14574 9.79494 4.92094 7.62478C4.70919 7.4207 4.75295 7.07619 4.9647 6.90808C5.69101 6.30899 6.91423 9.0651 10.2564 8.17753Z" fill="var(--fill-0, #7C019D)"/>
<path id="Vector_2" d="M3.95818 1.95619C2.70108 1.28169 1.53716 1.69677 0.508751 2.55875C0.401463 2.64868 0.239827 2.69365 0.143833 2.6383C-0.367899 2.34014 0.502398 0.17136 2.49074 0.0246998C4.65343 -0.315664 6.13427 2.98074 4.89553 2.59126L3.95888 1.95619H3.95818Z" fill="var(--fill-0, #7C019D)"/>
<path id="Vector_3" d="M17.8667 2.64454C17.4369 2.86107 15.9652 0.303504 13.1679 2.57536C13.0635 2.66045 12.9343 2.68051 12.8475 2.63901C12.28 2.36505 13.3056 -0.100506 15.5198 0.0191748C17.5279 0.127787 18.4109 2.37059 17.866 2.64454H17.8667Z" fill="var(--fill-0, #7C019D)"/>
</g>
</svg>
