<svg preserveAspectRatio="none" width="100%" height="100%" overflow="visible" style="display: block;" viewBox="0 0 33.0703 24.3934" fill="none" xmlns="http://www.w3.org/2000/svg">
<g id="shadow">
<path id="Vector" d="M30.1214 8.71524C30.1927 6.58659 29.2999 4.38322 28.1253 2.57348C27.9757 2.38185 26.1363 0.132828 26.0721 2.88197e-06C34.4158 4.61151 36.1098 17.2859 26.6897 21.8102C30.4913 18.6155 31.922 13.2949 30.1222 8.71524H30.1214Z" fill="var(--fill-0, #EDA9FF)"/>
<path id="Vector_2" d="M26.444 12.9221C26.4906 12.9089 26.5711 12.931 26.5859 13.003C26.9692 14.4592 27.0398 15.9832 26.7595 17.4678C28.7458 15.6699 29.7664 13.0784 30.0113 10.48C30.0191 10.3818 30.0671 10.3271 30.1504 10.2925C31.2734 16.1472 27.5586 22.2585 21.5483 23.73C25.3133 21.346 26.8739 17.1662 26.444 12.9221Z" fill="var(--fill-0, #EDA9FF)"/>
<path id="Vector_3" d="M20.3251 19.9182C19.2565 24.3865 14.3213 26.282 11.6349 21.9486C14.8358 22.6003 18.0756 22.3021 20.3251 19.9182Z" fill="var(--fill-0, #EDA9FF)"/>
<path id="Vector_4" d="M26.1702 14.2392C25.8864 18.6715 22.9643 23.5702 18.1617 24.2571C19.2544 23.3944 19.9666 22.3388 20.2729 21.1004C23.1908 19.9873 25.3888 17.3793 26.0382 14.3803C26.0276 14.2959 26.0572 14.2095 26.1695 14.2392H26.1702Z" fill="var(--fill-0, #EDA9FF)"/>
<path id="Vector_5" d="M1.47363 14.7346C1.86537 17.1932 2.6065 19.2022 4.30827 21.1108C4.24051 21.1475 4.17769 21.1523 4.08664 21.0873C3.2234 20.4744 2.39051 19.8289 1.73479 19.0486C0.0746566 16.1714 -0.487896 12.7353 0.459338 9.53226C0.61674 9.59452 0.523569 9.73634 0.513687 9.85809C0.377461 11.4589 0.851078 13.2735 1.47433 14.7346H1.47363Z" fill="var(--fill-0, #EDA9FF)"/>
<path id="Vector_6" d="M11.0003 21.7764C11.3942 22.7234 12.0217 23.5218 12.8665 24.2149C10.61 23.9278 8.6647 22.408 7.44148 20.6217C8.60541 21.0908 9.76863 21.5501 11.0003 21.7764Z" fill="var(--fill-0, #EDA9FF)"/>
<path id="Vector_7" d="M6.07921 19.692C6.86199 21.1779 7.90874 22.5027 9.30983 23.4678L9.21313 23.4955C9.19972 23.4885 9.18913 23.4733 9.18349 23.4623C5.5336 22.4259 2.96576 19.1621 2.30934 15.5661C2.4505 15.5509 2.46744 15.654 2.51897 15.7702C3.2721 17.3447 4.48543 18.9012 6.07921 19.692Z" fill="var(--fill-0, #EDA9FF)"/>
</g>
</svg>
