<svg width="14" height="17" viewBox="0 0 14 17" fill="none" xmlns="http://www.w3.org/2000/svg">
<path d="M4.16671 2.5H2.50004C2.05801 2.5 1.63409 2.67559 1.32153 2.98816C1.00897 3.30072 0.833374 3.72464 0.833374 4.16667V14.1667C0.833374 14.6087 1.00897 15.0326 1.32153 15.3452C1.63409 15.6577 2.05801 15.8333 2.50004 15.8333H10.8334C11.2754 15.8333 11.6993 15.6577 12.0119 15.3452C12.3244 15.0326 12.5 14.6087 12.5 14.1667V4.16667C12.5 3.72464 12.3244 3.30072 12.0119 2.98816C11.6993 2.67559 11.2754 2.5 10.8334 2.5H9.16671" stroke="currentColor" stroke-width="1.66667" stroke-linecap="round" stroke-linejoin="round"/>
<path d="M4.16675 8.33337H4.17508M7.50008 8.33337H9.16675M4.16675 11.6667H4.17508M7.50008 11.6667H9.16675M4.16675 2.50004C4.16675 2.05801 4.34234 1.63409 4.6549 1.32153C4.96746 1.00897 5.39139 0.833374 5.83341 0.833374H7.50008C7.94211 0.833374 8.36603 1.00897 8.67859 1.32153C8.99115 1.63409 9.16675 2.05801 9.16675 2.50004C9.16675 2.94207 8.99115 3.36599 8.67859 3.67855C8.36603 3.99111 7.94211 4.16671 7.50008 4.16671H5.83341C5.39139 4.16671 4.96746 3.99111 4.6549 3.67855C4.34234 3.36599 4.16675 2.94207 4.16675 2.50004Z" stroke="currentColor" stroke-width="1.66667" stroke-linecap="round" stroke-linejoin="round"/>
</svg>
