<svg width="14" height="17" viewBox="0 0 14 17" fill="none" xmlns="http://www.w3.org/2000/svg">
<path d="M6.66671 4.16671H6.67504M9.16671 4.16671H9.17504M4.16671 4.16671H4.17504M4.16671 10.8334H9.16671M0.833374 7.50004H12.5M0.833374 2.50004C0.833374 2.05801 1.00897 1.63409 1.32153 1.32153C1.63409 1.00897 2.05801 0.833374 2.50004 0.833374H10.8334C11.2754 0.833374 11.6993 1.00897 12.0119 1.32153C12.3244 1.63409 12.5 2.05801 12.5 2.50004V14.1667C12.5 14.6087 12.3244 15.0327 12.0119 15.3452C11.6993 15.6578 11.2754 15.8334 10.8334 15.8334H2.50004C2.05801 15.8334 1.63409 15.6578 1.32153 15.3452C1.00897 15.0327 0.833374 14.6087 0.833374 14.1667V2.50004Z" stroke="currentColor" stroke-width="1.66667" stroke-linecap="round" stroke-linejoin="round"/>
</svg>
