<svg preserveAspectRatio="none" width="100%" height="100%" overflow="visible" style="display: block;" viewBox="0 0 92.417 48.0259" fill="none" xmlns="http://www.w3.org/2000/svg">
<g id="Group 1">
<path id="Vector" d="M48.0947 27.273C47.8153 27.0753 47.5074 26.9765 47.1742 26.9765C46.9774 26.9765 46.7837 27.0339 46.587 27.1455C46.4187 27.2284 46.2378 27.3686 46.041 27.5663C45.2887 28.4367 44.3936 29.2625 43.3621 30.05C42.3273 30.8057 41.2227 31.1851 40.0515 31.1851C38.877 31.1564 37.8994 30.7355 37.1186 29.9225C36.3631 29.1095 35.7918 28.0988 35.3982 26.8936C35.0364 25.6852 34.8554 24.5087 34.8554 23.3577C34.8554 21.9835 35.0649 20.7911 35.4839 19.7804C35.9029 18.741 36.4488 17.8865 37.1186 17.2138C37.7883 16.5124 38.4993 15.9927 39.2547 15.6547C40.0356 15.3199 40.7783 15.1509 41.4766 15.1509C42.1749 15.1509 42.8701 15.2912 43.6541 15.5718C44.4349 15.8524 45.0507 16.4008 45.4982 17.2138C45.749 17.6633 45.9997 17.9854 46.2505 18.1799C46.5044 18.3488 46.8091 18.4349 47.1742 18.4349C47.4789 18.4349 47.7741 18.3648 48.0534 18.2245C48.3613 18.0842 48.612 17.8865 48.8088 17.6347C49.0025 17.3541 49.1009 17.0321 49.1009 16.6654C49.1009 16.5538 49.085 16.455 49.0596 16.3721C49.031 16.2605 48.9898 16.1457 48.9326 16.0341C48.5422 14.9692 47.9423 14.1115 47.1329 13.4675C46.3203 12.8235 45.4125 12.358 44.4063 12.0774C43.4033 11.7713 42.3686 11.6151 41.3084 11.6151C39.8261 11.6151 38.458 11.9371 37.2011 12.5843C35.9441 13.1997 34.8427 14.0701 33.8905 15.1924C32.97 16.286 32.2431 17.5358 31.7131 18.9387C31.2116 20.3416 30.9576 21.8018 30.9576 23.3163C30.9576 24.6075 31.1417 25.9243 31.5036 27.273C31.894 28.6185 32.4685 29.8683 33.2208 31.0161C33.9762 32.1384 34.9126 33.0503 36.0298 33.7517C37.144 34.4276 38.4581 34.7624 39.9658 34.7624C41.6163 34.7624 43.178 34.3001 44.6603 33.3755C46.1394 32.4477 47.4376 31.3541 48.5549 30.0915C48.7803 29.8683 48.9199 29.6579 48.9739 29.4602C49.031 29.2625 49.0596 29.068 49.0596 28.8703C49.0596 28.5356 48.9612 28.2263 48.7644 27.9457C48.5993 27.6652 48.374 27.4388 48.0947 27.273Z" fill="var(--fill-0, #7C019D)"/>
<path id="Vector_2" d="M72.0244 29.2498C71.8561 28.9979 71.6339 28.8002 71.3546 28.66C71.0753 28.5197 70.7801 28.4495 70.4722 28.4495C70.1929 28.4495 69.9294 28.5356 69.6787 28.7014C69.4533 28.8704 69.2311 29.0968 69.0058 29.3773C68.6725 29.7408 68.2662 30.1489 67.7933 30.5953C67.3457 31.0448 66.8982 31.2712 66.4506 31.2712C65.9777 31.2712 65.4889 31.115 64.9842 30.8057C64.4827 30.4709 63.9653 30.0214 63.4352 29.4602C62.9337 28.8991 62.4449 28.2965 61.9688 27.6493C61.353 26.782 60.7245 25.8957 60.0833 24.9997C59.4676 24.0719 58.9375 23.3291 58.4899 22.7679C58.9661 22.4044 59.5533 21.9549 60.2516 21.4224C60.9784 20.89 61.7434 20.3001 62.556 19.6529C63.3939 19.0089 64.216 18.3776 65.0254 17.759C65.838 17.115 66.5776 16.5411 67.2473 16.0341C67.9456 15.5017 68.5043 15.0681 68.9232 14.7301C69.1454 14.5611 69.301 14.3507 69.3835 14.0988C69.4692 13.8469 69.5105 13.5791 69.5105 13.2986C69.5105 13.0467 69.4692 12.8235 69.3835 12.6258C69.301 12.4026 69.174 12.2177 69.0058 12.0774C68.8661 11.9116 68.6852 11.7841 68.463 11.7012C68.2408 11.6151 67.9869 11.5737 67.7076 11.5737C67.4854 11.5737 67.26 11.6311 67.0378 11.7426C66.8156 11.8255 66.5903 11.9531 66.3681 12.1221C65.6983 12.6545 64.9016 13.2986 63.978 14.0574C63.0575 14.7875 62.1084 15.5431 61.1308 16.3307C60.1817 17.0863 59.2866 17.8037 58.4487 18.4764C57.6107 19.1491 56.9124 19.6975 56.3538 20.1184C55.8237 20.5393 55.5444 20.7624 55.5158 20.7911C55.6269 17.3382 55.7824 14.3666 55.976 11.867C56.2014 9.34183 56.395 7.29491 56.5632 5.72306C56.76 4.12571 56.8553 2.98747 56.8553 2.31473C56.8553 1.64199 56.7315 1.0936 56.4807 0.672739C56.2554 0.223183 55.7951 0 55.0968 0C54.5667 0 54.1192 0.15304 53.7573 0.462308C53.3923 0.771577 53.1828 1.19244 53.1289 1.72489C52.6527 6.80391 52.275 12.0073 51.9957 17.3382C51.7164 22.6691 51.4783 27.9872 51.2847 33.2894C51.2847 33.8793 51.4656 34.3129 51.8306 34.5934C52.2211 34.874 52.6813 35.0143 53.2114 35.0143C53.7415 35.0143 54.1477 34.874 54.5096 34.5934C54.9 34.3129 55.0968 33.8793 55.0968 33.2894C55.1539 31.8579 55.2079 30.4422 55.265 29.0394C55.3222 27.6078 55.3634 26.1507 55.3888 24.6618C55.8649 25.1942 56.3664 25.8829 56.8997 26.7246C57.4583 27.5377 58.071 28.4368 58.7407 29.4188C59.4422 30.3434 60.1659 31.2266 60.9213 32.0683C61.6736 32.91 62.4861 33.5987 63.3495 34.1311C64.2446 34.6636 65.1937 34.9314 66.1999 34.9314C66.7871 34.9314 67.387 34.8039 68.0028 34.552C68.6154 34.3001 69.2026 33.9781 69.7612 33.5859C70.3199 33.1651 70.796 32.7283 71.1864 32.2787C71.5228 31.9152 71.7863 31.5645 71.9831 31.2266C72.2053 30.8631 72.3164 30.5124 72.3164 30.1744C72.3164 29.8109 72.218 29.5017 72.0244 29.2498Z" fill="var(--fill-0, #7C019D)"/>
<path id="Vector_3" d="M27.6121 12.122C27.2471 11.7554 26.7583 11.5736 26.1457 11.5736C25.6981 11.5736 25.2919 11.7012 24.93 11.9531C24.5936 12.1762 24.3841 12.4855 24.3015 12.8777C24.1047 13.9171 23.9365 15.1637 23.7968 16.624C23.6858 18.0842 23.5874 19.6274 23.5048 21.2534C23.4477 22.854 23.3937 24.4099 23.3366 25.9244C23.308 27.4388 23.2668 28.8002 23.2096 30.0086C23.1842 31.2138 23.1398 32.1384 23.0858 32.7857C23.0573 33.57 23.2096 34.1726 23.5461 34.5934C23.8826 34.9888 24.3841 35.1833 25.0538 35.1833C25.5871 35.1833 26.0314 35.0143 26.3964 34.6795C26.7583 34.3703 26.9551 33.9366 26.9805 33.3755C27.0948 31.8865 27.1646 30.4008 27.1931 28.9118C27.2471 27.4261 27.2884 25.8957 27.3169 24.327C27.3741 22.7551 27.4566 21.0845 27.5677 19.3181C27.682 17.5231 27.8629 15.5846 28.1136 13.509C28.1676 12.9191 28.0026 12.4568 27.6121 12.122Z" fill="var(--fill-0, #7C019D)"/>
<path id="Vector_4" d="M18.7246 4.31697C17.8295 3.20424 16.7217 2.40715 15.4013 1.91934C14.1126 1.42514 12.6843 1.17646 11.1194 1.16689C9.57997 1.15095 7.97387 1.30718 6.30111 1.6292C5.72342 1.74079 5.10129 1.88745 4.42521 2.07875C4.00622 2.19672 3.62216 2.31469 3.2857 2.42947C3.1873 2.31788 3.07304 2.22542 2.94607 2.15209C2.51757 1.86514 2.01923 1.77267 1.44471 1.88427C0.730538 2.02136 0.295684 2.34976 0.140152 2.86946C-0.0153791 3.38278 -0.040772 3.98857 0.0607996 4.68362L2.32077 19.5445C2.27633 19.6082 2.22872 19.6752 2.18746 19.7453C1.90813 20.2013 1.82244 20.6604 1.94305 21.1259C2.06684 21.6137 2.3176 21.9644 2.70166 22.178C2.70484 22.1844 2.71436 22.1844 2.72388 22.1908L4.19032 32.7187L5.21873 39.4205C5.30126 40.004 5.56472 40.3962 5.99957 40.597C6.46299 40.7915 6.92958 40.8457 7.393 40.7565C7.85643 40.6672 8.25636 40.4472 8.58965 40.0965C8.94832 39.7426 9.07528 39.2739 8.96419 38.6968C8.35159 34.7911 7.14542 26.1156 6.53282 22.1812C6.84071 22.1461 7.14542 22.1111 7.45649 22.0728C8.62139 21.907 9.77676 21.7062 10.929 21.483C14.7696 20.7369 17.5026 19.2671 19.1245 17.0639C20.7782 14.8576 21.2861 12.1029 20.6513 8.79658C20.2926 6.92503 19.6483 5.43288 18.7246 4.32653V4.31697ZM16.7439 13.1072C16.4551 14.2773 15.7854 15.2944 14.7252 16.1553C13.6682 17.0161 12.1256 17.6474 10.0974 18.0396C8.97371 18.2564 7.83738 18.4317 6.70105 18.5688C6.45981 18.6007 6.22493 18.6262 5.98687 18.6549C5.54567 15.7631 5.11717 12.8649 4.70136 9.95394L4.11097 5.86969C4.52043 5.74853 4.92989 5.62418 5.33935 5.50303C5.87578 5.34042 6.40903 5.2097 6.92958 5.10767C9.89103 4.53377 12.1796 4.6071 13.7984 5.32129C15.4394 6.0291 16.4551 7.39052 16.8423 9.39917C17.0899 10.6936 17.0614 11.9275 16.7471 13.1072H16.7439Z" fill="var(--fill-0, #7C019D)"/>
<path id="Vector_5" d="M92.4116 13.7194L92.2847 16.1202C92.1736 18.25 92.1196 20.4404 92.1196 22.685C92.1323 23.8392 91.8213 27.5887 91.8054 27.9171C91.6498 31.4593 91.3674 35.1323 90.9135 37.4917C90.7738 38.209 90.5357 38.885 90.377 39.4844C90.012 40.9988 89.4819 42.4017 88.7836 43.693C88.0853 44.9811 87.1775 46.0205 86.0602 46.8048C84.9715 47.621 83.6035 48.0259 81.9561 48.0259C80.3087 48.0259 78.5884 47.6051 76.9696 46.7633C73.094 45.2871 71.4911 40.0487 67.006 41.1391C66.3236 41.2858 65.6316 41.6078 64.9397 42.0988C64.2699 42.5898 63.6859 43.2498 63.178 44.0756C62.94 44.4454 62.8479 44.6559 62.5686 45.2871C61.5846 47.519 58.766 47.4807 58.7026 45.2585C58.6899 44.8344 58.9406 44.2254 59.0771 43.897C59.2326 43.5144 59.4072 43.1446 59.5976 42.7811C60.2928 41.4835 61.1879 40.3994 62.2861 39.5322C63.3812 38.6331 64.6508 38.0305 66.0982 37.718C67.1362 37.4917 68.1805 37.4247 69.2247 37.514C73.6748 37.6702 75.7698 42.7715 79.9025 43.9449C80.6008 44.2254 81.2832 44.3657 81.9561 44.3657C82.7941 44.3657 83.5622 44.0692 84.2605 43.4825C84.9588 42.9214 85.5873 41.9521 86.1459 40.578C86.7046 39.2293 87.4822 36.7552 87.8441 34.4277C87.9838 33.5286 88.0821 32.6996 88.1393 31.944C88.1932 31.1564 88.2345 30.455 88.2631 29.8397C87.3965 31.4657 86.365 32.7442 85.162 33.6688C83.9907 34.568 82.6227 35.0143 81.0578 35.0143C79.2422 35.0143 77.7885 34.5233 76.6998 33.5413C75.6396 32.5593 74.8715 31.2712 74.3954 29.6707C73.9193 28.0446 73.6844 26.2623 73.6844 24.327C73.6844 22.7552 73.7669 21.1961 73.9351 19.6529C74.1287 18.1098 74.2271 16.5825 74.2271 15.0681C74.2271 14.7588 74.2144 14.4496 74.1859 14.1403C74.1859 13.8055 74.1732 13.4962 74.1446 13.2157C74.116 12.8777 74.1859 12.5844 74.3541 12.3325C74.5477 12.0519 74.8017 11.8255 75.1064 11.6566C75.4143 11.4908 75.7222 11.4047 76.03 11.4047C76.5887 11.4047 77.0077 11.5864 77.287 11.9531C77.5949 12.3166 77.8044 12.8076 77.9155 13.4261C78.0266 14.0159 78.0837 14.6887 78.0837 15.4443C78.0837 16.4263 78.0266 17.4944 77.9155 18.6454C77.8044 19.7677 77.6774 20.8741 77.5377 21.9677C77.4267 23.0357 77.3695 24.0018 77.3695 24.8722C77.3695 25.9403 77.4965 26.9765 77.7472 27.9872C77.998 28.9692 78.417 29.7823 79.0042 30.4295C79.62 31.0448 80.4579 31.3541 81.5181 31.3541C82.4386 31.3541 83.2638 31.0448 83.9907 30.4295C84.743 29.7823 85.4 28.9692 85.9587 27.9872C86.5459 27.0052 87.022 25.9658 87.3838 24.8722C87.7457 23.7786 88.0123 22.7679 88.1805 21.8433C88.2631 20.89 88.3202 20.1184 88.3456 19.5286C88.4027 18.91 88.4313 18.3489 88.4313 17.8451V15.3614C88.4599 15.0521 88.4884 14.7588 88.5138 14.4782C88.5424 14.169 88.5837 13.8884 88.6408 13.6365C88.7804 13.1041 88.9899 12.6673 89.2693 12.3325C89.5486 11.9945 89.9549 11.8415 90.4849 11.867C90.8182 11.8415 91.1261 11.9244 91.4054 12.1221C91.7133 12.2879 91.9641 12.5142 92.1609 12.7948C92.3545 13.0754 92.4402 13.3846 92.4116 13.7194Z" fill="var(--fill-0, #7C019D)"/>
<path id="Vector_6" d="M26.8122 8.11754C27.8886 8.11754 28.7611 7.24108 28.7611 6.1599C28.7611 5.07873 27.8886 4.20227 26.8122 4.20227C25.7359 4.20227 24.8633 5.07873 24.8633 6.1599C24.8633 7.24108 25.7359 8.11754 26.8122 8.11754Z" fill="var(--fill-0, #7C019D)"/>
</g>
</svg>
