<svg preserveAspectRatio="none" width="100%" height="100%" overflow="visible" style="display: block;" viewBox="0 0 16 16" fill="none" xmlns="http://www.w3.org/2000/svg">
<g id="Icon">
<path id="Vector" fill-rule="evenodd" clip-rule="evenodd" d="M14.2224 6.5776C10.7856 3.1408 5.2144 3.1408 1.7776 6.5776C1.62672 6.72333 1.42464 6.80396 1.21488 6.80214C1.00512 6.80032 0.804472 6.71618 0.656145 6.56786C0.507819 6.41953 0.423683 6.21888 0.421861 6.00912C0.420038 5.79936 0.500673 5.59728 0.6464 5.4464C4.7072 1.3848 11.2928 1.3848 15.3536 5.4464C15.4993 5.59728 15.58 5.79936 15.5781 6.00912C15.5763 6.21888 15.4922 6.41953 15.3439 6.56786C15.1955 6.71618 14.9949 6.80032 14.7851 6.80214C14.5754 6.80396 14.3733 6.72333 14.2224 6.5776ZM11.96 8.84C11.44 8.31993 10.8226 7.90739 10.1432 7.62593C9.4637 7.34446 8.73545 7.1996 8 7.1996C7.26455 7.1996 6.5363 7.34446 5.85684 7.62593C5.17738 7.90739 4.56002 8.31993 4.04 8.84C3.88912 8.98573 3.68704 9.06636 3.47728 9.06454C3.26752 9.06272 3.06687 8.97858 2.91855 8.83026C2.77022 8.68193 2.68608 8.48128 2.68426 8.27152C2.68244 8.06176 2.76307 7.85968 2.9088 7.7088C3.57738 7.04021 4.37111 6.50985 5.24466 6.14801C6.11821 5.78617 7.05447 5.59994 8 5.59994C8.94552 5.59994 9.88179 5.78617 10.7553 6.14801C11.6289 6.50985 12.4226 7.04021 13.0912 7.7088C13.2369 7.85968 13.3176 8.06176 13.3157 8.27152C13.3139 8.48128 13.2298 8.68193 13.0815 8.83026C12.9331 8.97858 12.7325 9.06272 12.5227 9.06454C12.313 9.06636 12.1109 8.98573 11.96 8.84ZM9.696 11.104C9.24593 10.6541 8.63559 10.4013 7.9992 10.4013C7.36281 10.4013 6.75247 10.6541 6.3024 11.104C6.15229 11.2541 5.94869 11.3384 5.7364 11.3384C5.52411 11.3384 5.32051 11.2541 5.1704 11.104C5.02029 10.9539 4.93596 10.7503 4.93596 10.538C4.93596 10.3257 5.02029 10.1221 5.1704 9.972C5.54185 9.60045 5.98285 9.30572 6.46822 9.10464C6.95359 8.90355 7.47382 8.80005 7.9992 8.80005C8.52458 8.80005 9.04481 8.90355 9.53018 9.10464C10.0155 9.30572 10.4566 9.60045 10.828 9.972C10.9781 10.1221 11.0624 10.3257 11.0624 10.538C11.0624 10.7503 10.9781 10.9539 10.828 11.104C10.6779 11.2541 10.4743 11.3384 10.262 11.3384C10.0497 11.3384 9.84611 11.2541 9.696 11.104ZM7.2 12.8C7.2 12.5878 7.28429 12.3843 7.43431 12.2343C7.58434 12.0843 7.78783 12 8 12H8.008C8.22017 12 8.42366 12.0843 8.57369 12.2343C8.72371 12.3843 8.808 12.5878 8.808 12.8C8.808 13.0122 8.72371 13.2157 8.57369 13.3657C8.42366 13.5157 8.22017 13.6 8.008 13.6H8C7.78783 13.6 7.58434 13.5157 7.43431 13.3657C7.28429 13.2157 7.2 13.0122 7.2 12.8Z" fill="var(--fill-0, #2C0238)"/>
</g>
</svg>
