<svg preserveAspectRatio="none" width="100%" height="100%" overflow="visible" style="display: block;" viewBox="0 0 16 16" fill="none" xmlns="http://www.w3.org/2000/svg">
<g id="Icon">
<path id="Vector" d="M1.6 8.8C1.6 8.58783 1.68429 8.38434 1.83431 8.23431C1.98434 8.08429 2.18783 8 2.4 8H4C4.21217 8 4.41566 8.08429 4.56569 8.23431C4.71571 8.38434 4.8 8.58783 4.8 8.8V12.8C4.8 13.0122 4.71571 13.2157 4.56569 13.3657C4.41566 13.5157 4.21217 13.6 4 13.6H2.4C2.18783 13.6 1.98434 13.5157 1.83431 13.3657C1.68429 13.2157 1.6 13.0122 1.6 12.8V8.8ZM6.4 5.6C6.4 5.38783 6.48429 5.18434 6.63431 5.03431C6.78434 4.88429 6.98783 4.8 7.2 4.8H8.8C9.01217 4.8 9.21566 4.88429 9.36569 5.03431C9.51571 5.18434 9.6 5.38783 9.6 5.6V12.8C9.6 13.0122 9.51571 13.2157 9.36569 13.3657C9.21566 13.5157 9.01217 13.6 8.8 13.6H7.2C6.98783 13.6 6.78434 13.5157 6.63431 13.3657C6.48429 13.2157 6.4 13.0122 6.4 12.8V5.6ZM11.2 3.2C11.2 2.98783 11.2843 2.78434 11.4343 2.63431C11.5843 2.48429 11.7878 2.4 12 2.4H13.6C13.8122 2.4 14.0157 2.48429 14.1657 2.63431C14.3157 2.78434 14.4 2.98783 14.4 3.2V12.8C14.4 13.0122 14.3157 13.2157 14.1657 13.3657C14.0157 13.5157 13.8122 13.6 13.6 13.6H12C11.7878 13.6 11.5843 13.5157 11.4343 13.3657C11.2843 13.2157 11.2 13.0122 11.2 12.8V3.2Z" fill="var(--fill-0, #2C0238)"/>
</g>
</svg>
