<svg preserveAspectRatio="none" width="100%" height="100%" overflow="visible" style="display: block;" viewBox="0 0 20 20" fill="none" xmlns="http://www.w3.org/2000/svg">
<g id="Icon">
<path id="Union" d="M13.6533 5.50781C14.4097 5.58461 15 6.22334 15 7V8.25C15 7.97386 15.2239 7.75 15.5 7.75H17C17.2761 7.75 17.5 7.97386 17.5 8.25V11.75C17.5 12.0261 17.2761 12.25 17 12.25H15.5C15.2239 12.25 15 12.0261 15 11.75V13L14.9922 13.1533C14.9205 13.8593 14.3593 14.4205 13.6533 14.4922L13.5 14.5H2.5C1.72334 14.5 1.08461 13.9097 1.00781 13.1533L1 13V7C1 6.17157 1.67157 5.5 2.5 5.5H13.5L13.6533 5.50781ZM2.5 13H13.5V7H2.5V13Z" fill="var(--fill-0, #2C0238)"/>
<rect id="Rectangle" x="1" y="6" width="9" height="8" rx="0.5" fill="var(--fill-0, #2C0238)"/>
</g>
</svg>
